<?xml version="1.0" encoding="UTF-8"?>
<svg version="1.1" xmlns="http://www.w3.org/2000/svg" width="180" height="180">
<path d="M0 0 C59.4 0 118.8 0 180 0 C180 59.4 180 118.8 180 180 C120.6 180 61.2 180 0 180 C0 120.6 0 61.2 0 0 Z " fill="#FDFDFD" transform="translate(0,0)"/>
<path d="M0 0 C6.40587597 0.09823991 11.47954895 1.05307256 17.0769043 4.3190918 C17.71756836 4.6697168 18.35823242 5.0203418 19.01831055 5.3815918 C26.13537687 9.80862226 30.35584126 17.58554423 33.0769043 25.3190918 C35.52050274 39.42069116 35.01791752 53.08721323 27.0769043 65.3190918 C21.21262754 72.18631327 14.07301864 76.70287882 4.95922852 77.50561523 C-0.02231236 77.76238475 -4.95623893 77.79212577 -9.9230957 77.3190918 C-11.9230957 75.3190918 -11.9230957 75.3190918 -12.17033386 72.27598572 C-12.16890884 70.96884109 -12.16748383 69.66169647 -12.16601562 68.31494141 C-12.16791397 67.59449142 -12.16981232 66.87404144 -12.17176819 66.13175964 C-12.17547995 63.74487507 -12.16476716 61.35829318 -12.15356445 58.97143555 C-12.15237287 57.31759171 -12.15191944 55.6637472 -12.1521759 54.00990295 C-12.1506104 50.54220347 -12.14231501 47.07460713 -12.12890625 43.60693359 C-12.11190304 39.15219568 -12.10809224 34.69757108 -12.10885143 30.24280453 C-12.10858011 26.82771209 -12.10310517 23.41264465 -12.09584999 19.9975605 C-12.09265826 18.3544388 -12.09069475 16.71131426 -12.08995628 15.06818962 C-12.08779878 12.77669274 -12.07906786 10.4853184 -12.06835938 8.19384766 C-12.06454758 6.88749863 -12.06073578 5.5811496 -12.05680847 4.23521423 C-11.76945859 -2.03155783 -4.93278735 0.01308175 0 0 Z " fill="#FBFBFB" transform="translate(38.923095703125,51.680908203125)"/>
<path d="M0 0 C5.56432059 -0.10018166 11.12809639 -0.17207677 16.69311523 -0.21972656 C18.57927617 -0.2396265 20.46537722 -0.26675654 22.35131836 -0.30175781 C38.91697392 -0.60111061 55.45468259 0.11491115 68.24609375 12.10546875 C78.00018497 22.50386692 80.52794982 33.08393531 80.31640625 47.14453125 C79.28321251 59.7341883 74.23309737 70.02237674 64.671875 78.171875 C55.22436087 84.63596361 45.00116354 86.15890158 33.88671875 86.09765625 C32.91716751 86.0962413 31.94761627 86.09482635 30.94868469 86.09336853 C27.86159133 86.08778513 24.77457133 86.07523564 21.6875 86.0625 C19.59049584 86.05748286 17.49349054 86.05292032 15.39648438 86.04882812 C10.26429479 86.03782112 5.13215982 86.02056788 0 86 C0 84.68 0 83.36 0 82 C3.07617188 81.70703125 3.07617188 81.70703125 6.15234375 81.4140625 C7.06693359 81.20910156 7.06693359 81.20910156 8 81 C9.4794228 78.04115439 9.12735706 75.3896816 9.12939453 72.08764648 C9.13114685 71.37695007 9.13289917 70.66625366 9.13470459 69.934021 C9.1391139 67.57968724 9.13618866 65.2254283 9.1328125 62.87109375 C9.13348573 61.23966965 9.13445591 59.60824565 9.13571167 57.9768219 C9.13718733 54.55623419 9.13503802 51.13567257 9.13037109 47.71508789 C9.12466937 43.32089128 9.12795644 38.92675568 9.13394356 34.5325613 C9.13754887 31.16379838 9.1364108 27.79505004 9.13381577 24.4262867 C9.13314665 22.80549169 9.1339744 21.18469538 9.13629532 19.5639019 C9.13882185 17.30355166 9.13498149 15.04330172 9.12939453 12.78295898 C9.12859894 11.49437485 9.12780334 10.20579071 9.12698364 8.87815857 C9.32913519 6.10405102 9.32913519 6.10405102 8 5 C6.65252916 4.76924918 5.29622435 4.58846937 3.9375 4.4375 C2.638125 4.293125 1.33875 4.14875 0 4 C0 2.68 0 1.36 0 0 Z M21 6 C20.89501095 8.28969104 20.86142441 10.58266882 20.85473633 12.87475586 C20.85137772 13.59345352 20.8480191 14.31215118 20.84455872 15.05262756 C20.83502161 17.4400503 20.83310423 19.82740312 20.83203125 22.21484375 C20.82882057 23.86772186 20.82545665 25.52059968 20.82194519 27.17347717 C20.815947 30.64292052 20.81410599 34.11233894 20.81469727 37.58178711 C20.81479892 42.03537167 20.80114598 46.48879693 20.78392506 50.94234371 C20.77282603 54.35747517 20.77077741 57.77256787 20.77130699 61.18771553 C20.77012373 62.83001823 20.76568269 64.47232182 20.75797462 66.11460686 C20.74821687 68.40846907 20.75103586 70.70198221 20.75708008 72.99584961 C20.75565506 74.30299423 20.75423004 75.61013885 20.75276184 76.95689392 C20.67835846 80.11004118 20.67835846 80.11004118 23 82 C35.58031406 83.19812515 46.31004499 82.18455565 56.375 73.9375 C63.71504204 66.86585377 66.69270912 58.49598621 67.16796875 48.44921875 C67.23529283 35.48260006 65.1509892 26.39420463 58.3125 15.25 C51.30631 8.43316648 42.83851441 4.75155873 33.12304688 4.77539062 C32.31931641 4.78763672 31.51558594 4.79988281 30.6875 4.8125 C29.45290039 4.8134668 29.45290039 4.8134668 28.19335938 4.81445312 C24.282962 4.46521991 24.282962 4.46521991 21 6 Z " fill="#060606" transform="translate(6,47)"/>
<path d="M0 0 C0 3.96 0 7.92 0 12 C1.051875 10.576875 2.10375 9.15375 3.1875 7.6875 C6.94485407 2.89856776 9.34939044 0.32551345 15.5625 -0.4375 C19 0 19 0 21.4375 1.5625 C23.58016848 4.90506283 23.49573337 7.10495209 23 11 C21.8125 13 21.8125 13 20 14 C16.51967799 13.73897585 14.94903702 12.96602468 12 11 C9.13023717 10.16516674 9.13023717 10.16516674 6 11 C1.95926435 14.09802 0.18649459 17.63839777 -0.4987793 22.64160156 C-0.70066185 26.91134468 -0.57244696 31.16762777 -0.4375 35.4375 C-0.4159448 36.93420866 -0.39704162 38.43095798 -0.38085938 39.92773438 C-0.91683133 46.46285655 -0.91683133 46.46285655 1 52 C2.68183948 52.23287008 4.3712416 52.41264166 6.0625 52.5625 C6.98160156 52.64628906 7.90070313 52.73007813 8.84765625 52.81640625 C9.91306641 52.90728516 9.91306641 52.90728516 11 53 C11 54.32 11 55.64 11 57 C0.77 57 -9.46 57 -20 57 C-20 55.68 -20 54.36 -20 53 C-15.545 52.505 -15.545 52.505 -11 52 C-11.1179265 46.17913293 -11.24215042 40.3584481 -11.37231445 34.5378418 C-11.41573144 32.55610854 -11.45740137 30.57433622 -11.49731445 28.5925293 C-11.55485383 25.7503683 -11.61859445 22.90840517 -11.68359375 20.06640625 C-11.70030624 19.17474258 -11.71701874 18.28307892 -11.73423767 17.36439514 C-11.436587 13.36051605 -11.436587 13.36051605 -13 10 C-15.32817964 9.63239269 -17.6618385 9.29758419 -20 9 C-20 7.68 -20 6.36 -20 5 C-19.02417969 4.72285156 -18.04835938 4.44570312 -17.04296875 4.16015625 C-15.75780249 3.794306 -14.47264679 3.42841864 -13.1875 3.0625 C-11.92292969 2.70285156 -10.65835938 2.34320313 -9.35546875 1.97265625 C-2.5502008 0 -2.5502008 0 0 0 Z " fill="#070707" transform="translate(117,76)"/>
<path d="M0 0 C3.89584605 0.45466396 6.56456711 2.56515577 9.6875 4.8125 C10.66074219 5.49957031 11.63398438 6.18664062 12.63671875 6.89453125 C15.15261075 9.1359623 15.59649513 9.77758607 16 13 C14.94823209 15.69390146 13.85347898 18.17776693 12.5625 20.75 C12.22412109 21.44738281 11.88574219 22.14476563 11.53710938 22.86328125 C10.70193542 24.58068121 9.85234576 26.29105738 9 28 C4.64061801 27.46683817 2.1645469 25.96936968 -1.25 23.25 C-2.12140625 22.57453125 -2.9928125 21.8990625 -3.890625 21.203125 C-6.352505 18.63182812 -6.96870066 17.54725884 -7 14 C-5.8203125 10.703125 -5.8203125 10.703125 -4.125 7.25 C-3.57070312 6.10015625 -3.01640625 4.9503125 -2.4453125 3.765625 C-1 1 -1 1 0 0 Z " fill="#060606" transform="translate(159,104)"/>
</svg>
